# xmcd CD database file
#
# Track frame offsets:
#	150
#	14534
#	34546
#	55124
#	72701
#
# Disc length: 1179 seconds
#
# Revision: 0
# Processed by: cddbd v1.5.2PL0 Copyright (c) Steve Scherf et al.
# Submitted via: CDex 1.51
#
DISCID=3f049905
DTITLE=Dal Nero, Gino - Veronika, kumm mer fahre noh Colonia
DYEAR=2006
DGENRE=Stimmung
TTITLE0=Veronika, kumm mer fahre noh Colonia (Radio Mix)
TTITLE1=Veronika, kumm mer fahre noh Colonia (Extended Mix)
TTITLE2=Veronika, kumm mer fahre noh Colonia (Party Mix)
TTITLE3=Zosamme levve (Party Remix)
TTITLE4=Mamma Maria (Party Remix)
EXTD=YEAR: 2006
EXTT0=
EXTT1=
EXTT2=
EXTT3=
EXTT4=
PLAYORDER=
